<!-- Simple Discord-themed favicon SVG -->
<svg width="32" height="32" viewBox="0 0 32 32" xmlns="http://www.w3.org/2000/svg">
  <rect width="32" height="32" fill="#5865F2" rx="6"/>
  <path d="M26.5 9.5c-1.5-1.5-3.5-2.5-5.5-2.5s-4 1-5.5 2.5c-1.5-1.5-3.5-2.5-5.5-2.5s-4 1-5.5 2.5c-1 1-1.5 2.5-1.5 4v7c0 1.5.5 3 1.5 4 1.5 1.5 3.5 2.5 5.5 2.5s4-1 5.5-2.5c1.5 1.5 3.5 2.5 5.5 2.5s4-1 5.5-2.5c1-1 1.5-2.5 1.5-4v-7c0-1.5-.5-3-1.5-4z" fill="white"/>
  <circle cx="12" cy="15" r="2" fill="#5865F2"/>
  <circle cx="20" cy="15" r="2" fill="#5865F2"/>
  <path d="M11 20c0 2 2 3 5 3s5-1 5-3" stroke="#5865F2" stroke-width="1.5" fill="none" stroke-linecap="round"/>
</svg>
